Coordinates
version=1
nRows=5
nColumns=40
inDegrees=yes

Units are S.I. units (second, meters, Newtons, ...)
Angles are in degrees.

endheader
time	pelvis_tilt	pelvis_list	pelvis_rotation	pelvis_tx	pelvis_ty	pelvis_tz	hip_flexion_r	hip_adduction_r	hip_rotation_r	knee_angle_r	knee_angle_r_beta	ankle_angle_r	subtalar_angle_r	mtp_angle_r	hip_flexion_l	hip_adduction_l	hip_rotation_l	knee_angle_l	knee_angle_l_beta	ankle_angle_l	subtalar_angle_l	mtp_angle_l	lumbar_extension	lumbar_bending	lumbar_rotation	arm_flex_r	arm_add_r	arm_rot_r	elbow_flex_r	pro_sup_r	wrist_flex_r	wrist_dev_r	arm_flex_l	arm_add_l	arm_rot_l	elbow_flex_l	pro_sup_l	wrist_flex_l	wrist_dev_l
     55.41342857	     -4.14584551	     -4.52386903	     -2.08678465	      0.78811827	      0.93533943	      0.39344173	     32.73847919	     -5.32964891	     -8.25476218	     51.64721496	     51.64721496	      1.92006434	    -14.73979772	      1.37596289	      9.45833242	     -3.52869325	     -9.49663254	     17.83185151	     17.83185151	     14.94907684	     -7.62491576	      0.88979547	     -9.66096501	      5.37474254	      2.02360700	     -1.71188834	    -13.01547913	     -1.67660901	     24.88443629	     46.54359754	      0.00000000	      0.00000000	     18.23710238	    -16.51385201	    -13.07551562	     68.09801814	     47.46854632	      0.00000000	      0.00000000
     55.42685714	     -4.28077317	     -4.53368326	     -2.22555778	      0.78719858	      0.93526064	      0.39332194	     32.80413741	     -4.98072080	     -8.52204181	     48.19117581	     48.19117581	      2.28060095	    -13.80910831	      1.38788088	      8.87257341	     -3.50531882	     -9.79624825	     17.27130946	     17.27130946	     15.13455057	     -7.18337240	      0.70508080	     -9.62602693	      5.41068403	      1.88581379	     -3.42046561	    -13.13665612	     -1.73051886	     24.48065928	     46.54794836	      0.00000000	      0.00000000	     18.58078533	    -16.66448765	    -13.49244473	     69.10931456	     47.51613700	      0.00000000	      0.00000000
     55.44028571	     -4.31479369	     -4.50407725	     -2.37868568	      0.78635515	      0.93506645	      0.39349017	     32.57712492	     -4.65131706	     -8.82589776	     44.37978196	     44.37978196	      1.96853171	    -12.95518343	     -0.48827313	      8.20936983	     -3.54184642	    -10.53018194	     16.80005556	     16.80005556	     15.19959770	     -6.15641063	     -0.30523810	     -9.83624175	      5.26160862	      1.56010954	     -5.38392079	    -13.27737749	     -2.25498988	     25.55302164	     46.51614856	      0.00000000	      0.00000000	     18.24120568	    -16.62811973	    -15.01897848	     71.82834928	     47.67451098	      0.00000000	      0.00000000
     55.45371429	     -4.58699139	     -4.48245189	     -2.46967490	      0.78534417	      0.93447871	      0.39371264	     32.54964446	     -4.29491917	     -9.12647240	     40.52768149	     40.52768149	      2.24953535	    -11.71747925	     -0.26318519	      7.87542991	     -3.49900704	    -10.66770690	     16.39711916	     16.39711916	     15.38789209	     -5.93839720	     -0.41674468	     -9.63677552	      5.20058406	      1.30289679	     -6.86700747	    -13.31233552	     -2.29417985	     25.15204166	     46.52129760	      0.00000000	      0.00000000	     18.50509780	    -16.92334093	    -15.23064818	     72.25980553	     47.69717151	      0.00000000	      0.00000000
     55.46714286	     -4.57636237	     -4.40971663	     -2.55079819	      0.78461217	      0.93414062	      0.39396933	     32.04039273	     -4.07614567	     -9.65733548	     36.49745583	     36.49745583	      2.41370990	     -9.84752718	     -0.52874464	      7.17011081	     -3.42743197	    -11.08988191	     15.92945531	     15.92945531	     15.61640458	     -5.25316228	     -0.78776378	     -9.82369236	      5.03711840	      1.25976466	     -8.47721975	    -13.39844588	     -2.53294421	     25.21859498	     46.51858719	      0.00000000	      0.00000000	     18.76716669	    -16.90061720	    -15.57764996	     73.21461566	     47.74008456	      0.00000000	      0.00000000
